<svg width="43" height="58" viewBox="0 0 43 58" fill="none" xmlns="http://www.w3.org/2000/svg">
<path d="M42.398 16.9757C39.0562 17.0027 35.7158 17.0281 32.377 17.052C30.8312 17.0633 29.2854 17.0094 27.7396 17.0722C26.885 17.1059 26.6046 16.8478 26.6134 15.9499C26.6554 11.097 26.6333 6.24408 26.6333 1.38892C26.6333 1.01631 26.6178 0.643701 26.609 0.266602C28.6097 2.34065 30.6236 4.40123 32.6066 6.491C35.6702 9.7143 38.7206 12.9503 41.7576 16.1991C41.9939 16.446 42.1882 16.7176 42.398 16.9757Z" fill="#EC676A"/>
<path d="M42.398 16.9757C42.8618 17.2383 42.705 17.6962 42.705 18.0823C42.7138 28.6995 42.7138 39.3166 42.705 49.9338C42.705 54.468 39.5008 57.6576 35.018 57.6621C26.0378 57.6621 17.0642 57.6621 8.09722 57.6621C3.61667 57.6621 0.423533 54.459 0.419117 49.9248C0.405867 35.9437 0.405867 21.9618 0.419117 7.97917C0.419117 3.43826 3.61446 0.230667 8.08838 0.232911C14.2715 0.232911 20.4487 0.247128 26.6201 0.27556C26.6201 0.648171 26.6443 1.02078 26.6443 1.39788C26.6443 6.25304 26.6664 11.106 26.6245 15.9589C26.6245 16.8567 26.8961 17.1126 27.7507 17.0812C29.2965 17.0183 30.8422 17.0812 32.388 17.061C35.7225 17.0356 39.0591 17.0071 42.398 16.9757Z" fill="#E4262B"/>
<path d="M7.73285 44.4817V34.0913H12.8582C13.4775 34.0792 14.09 34.2242 14.6403 34.5133C15.1395 34.7823 15.5559 35.1862 15.8438 35.6805C16.1366 36.1916 16.2856 36.7748 16.2744 37.3662C16.2829 37.9452 16.1339 38.5154 15.8438 39.0138C15.5523 39.502 15.1324 39.8977 14.6314 40.1563C14.0845 40.4385 13.4781 40.581 12.8648 40.5716H9.8594V44.4907L7.73285 44.4817ZM9.85057 38.7803H12.6241C13.0286 38.8015 13.4251 38.6604 13.7283 38.3875C13.8656 38.2584 13.9739 38.1008 14.0459 37.9253C14.1179 37.7499 14.1519 37.5607 14.1456 37.3707C14.1539 37.1761 14.1209 36.982 14.0489 36.8015C13.9769 36.621 13.8676 36.4584 13.7283 36.3247C13.4251 36.0518 13.0286 35.9107 12.6241 35.9319H9.8594L9.85057 38.7803Z" fill="white"/>
<path d="M17.6766 44.4816V34.0911H21.6051C22.3341 34.0832 23.0578 34.2189 23.7361 34.4907C24.3693 34.7467 24.9492 35.1222 25.4452 35.5973C25.9309 36.0665 26.3204 36.6287 26.5913 37.2516C26.8631 37.8979 27.0032 38.5936 27.0032 39.2965C27.0032 39.9994 26.8631 40.695 26.5913 41.3413C26.3249 41.9629 25.9346 42.5215 25.4452 42.9822C24.9445 43.4521 24.3629 43.8242 23.7294 44.0798C23.0513 44.3523 22.3276 44.4888 21.5985 44.4816H17.6766ZM19.7943 42.5647H21.5764C22.0046 42.5688 22.4294 42.4871 22.8265 42.3242C23.2236 42.1612 23.5852 41.9203 23.8906 41.6152C24.185 41.3223 24.4178 40.9718 24.5752 40.5849C24.7399 40.1778 24.8225 39.7411 24.8181 39.301C24.8208 38.8609 24.7382 38.4247 24.5752 38.017C24.4196 37.6219 24.1867 37.2629 23.8906 36.962C23.5883 36.6559 23.2293 36.4138 22.8344 36.2496C22.4394 36.0855 22.0163 36.0026 21.5896 36.0058H19.7965L19.7943 42.5647Z" fill="white"/>
<path d="M28.4529 44.4816V34.0912H36.3386V35.961H30.5706V38.4099H34.4108V40.2056H30.5706V44.4704L28.4529 44.4816Z" fill="white"/>
</svg>
