<svg width="51" height="51" viewBox="0 0 51 51" fill="none" xmlns="http://www.w3.org/2000/svg">
<path d="M25.5 50.1795C39.1301 50.1795 50.1795 39.1301 50.1795 25.5C50.1795 11.8699 39.1301 0.820557 25.5 0.820557C11.8699 0.820557 0.820496 11.8699 0.820496 25.5C0.820496 39.1301 11.8699 50.1795 25.5 50.1795Z" fill="#3874B6"/>
<path d="M25.5 0.820557C32.0454 0.820557 38.3227 3.42071 42.951 8.04902C47.5793 12.6773 50.1795 18.9546 50.1795 25.5C50.1795 32.0455 47.5793 38.3228 42.951 42.9511C38.3227 47.5794 32.0454 50.1795 25.5 50.1795V0.820557Z" fill="#24479E"/>
<rect x="24.1538" y="14.282" width="3.58974" height="23.3333" fill="white"/>
<rect x="37.6154" y="24.1538" width="3.58974" height="23.3333" transform="rotate(90 37.6154 24.1538)" fill="white"/>
</svg>
