<svg width="55" height="40" viewBox="0 0 55 40" fill="none" xmlns="http://www.w3.org/2000/svg">
<path d="M15.8463 20.0019C13.5898 17.5132 11.4183 15.1151 9.24287 12.7202C6.46615 9.66305 3.68877 6.60633 0.906462 3.55408C0.287287 2.87481 -0.273685 2.18319 0.147259 1.18876C0.579371 0.167933 1.45347 0.00237138 2.44677 0.00726588C5.70329 0.0230134 8.96002 0.034292 12.2161 0.000243336C13.1875 -0.00997128 13.9126 0.300936 14.5627 1.02085C19.7886 6.80722 25.039 12.5715 30.2778 18.3463C31.4758 19.6668 31.4795 20.3341 30.2879 21.6478C25.0261 27.4497 19.754 33.2426 14.4993 39.0509C13.9053 39.7076 13.2296 40.0064 12.3372 39.9996C9.00942 39.9743 5.68117 39.9813 2.35313 39.9947C1.39033 39.9985 0.569921 39.7902 0.151554 38.8268C-0.256504 37.8871 0.222427 37.198 0.822917 36.5379C5.44707 31.4551 10.0676 26.3693 14.6889 21.2841C15.0463 20.8913 15.4009 20.4957 15.8463 20.0019Z" fill="#3E82BE"/>
<path d="M39.6688 19.9992C36.6221 16.6418 33.6588 13.3753 30.6941 10.11C28.6839 7.89597 26.676 5.67961 24.6579 3.47262C24.0533 2.81143 23.5746 2.12003 23.9708 1.18497C24.3789 0.222241 25.2008 0.00411627 26.1666 0.00815956C29.4944 0.0222047 32.8227 0.0290144 36.1503 0.00305225C37.0422 -0.0039703 37.7179 0.290551 38.3128 0.948117C43.6158 6.80833 48.9373 12.6521 54.2466 18.5068C55.248 19.6111 55.2513 20.3897 54.2524 21.4914C48.9438 27.3467 43.6223 33.1903 38.319 39.0505C37.725 39.707 37.051 40.0069 36.158 40.0001C32.8302 39.9743 29.5022 39.9811 26.1743 39.9952C25.2098 39.9992 24.3868 39.7871 23.9736 38.8254C23.572 37.891 24.0458 37.2 24.6495 36.5365C29.2266 31.5077 33.7973 26.4729 38.3697 21.4397C38.775 20.9941 39.1764 20.5455 39.6688 19.9992Z" fill="#3E82BE"/>
</svg>
