<svg width="52" height="51" viewBox="0 0 52 51" fill="none" xmlns="http://www.w3.org/2000/svg">
<path d="M39.7367 0.718018C44.274 0.978973 47.9817 3.21181 49.9715 7.76773C51.9281 12.2412 51.298 16.5813 48.0149 20.1758C44.3385 24.1942 40.4528 28.0241 36.4946 31.7776C32.0728 35.9568 25.0076 35.8076 20.6914 31.6559C19.2142 30.2373 19.0499 28.2262 20.3001 26.841C21.5504 25.4558 23.5872 25.4205 25.1387 26.7076C27.5883 28.7364 30.2258 28.6402 32.4719 26.4054C35.8946 22.9953 39.3082 19.5768 42.7126 16.1497C44.2642 14.58 44.6985 12.7082 43.9198 10.6559C43.1783 8.69383 41.658 7.66178 39.5899 7.50678C38.0462 7.39102 36.7216 7.94824 35.624 9.05288C33.7143 10.9737 31.7774 12.8672 29.8932 14.8155C29.3062 15.4198 28.7819 15.463 27.9875 15.2609C26.4535 14.8685 24.857 14.6919 23.3113 14.3662C22.8848 14.2759 22.333 14.0601 22.1569 13.7324C22.0336 13.5068 22.3682 12.8946 22.6519 12.6062C25.4185 9.78866 28.2047 6.98944 31.0104 4.20853C33.3074 1.90899 36.1053 0.774918 39.7367 0.718018Z" fill="url(#paint0_radial_46_225)"/>
<path d="M12.1784 50.9763C7.64698 50.7193 3.9295 48.5002 1.93184 43.9423C-0.0247259 39.4708 0.595506 35.113 3.88841 31.5283C7.60589 27.459 11.5347 23.5623 15.5633 19.7971C19.9597 15.6866 26.9818 15.9534 31.2902 20.1385C32.6774 21.4865 32.8241 23.4466 31.6384 24.8102C30.4527 26.1738 28.3866 26.3053 26.884 25.0967C24.1448 22.8972 21.6775 23.0326 19.1888 25.5264C15.843 28.8776 12.4875 32.217 9.16135 35.5879C7.18326 37.5931 7.05415 40.5028 8.79158 42.51C10.7305 44.7507 13.9882 44.8743 16.1757 42.7415C18.1401 40.8266 20.0744 38.8815 21.9788 36.9064C22.5541 36.3177 23.0726 36.2255 23.8767 36.4296C25.442 36.822 27.064 37.0182 28.6527 37.338C29.044 37.4204 29.631 37.6284 29.7327 37.9266C29.8345 38.2249 29.5566 38.786 29.2788 39.0686C26.4913 41.9136 23.6817 44.7383 20.8499 47.5427C18.5587 49.7991 15.7746 50.9136 12.1784 50.9763Z" fill="url(#paint1_radial_46_225)"/>
<defs>
<radialGradient id="paint0_radial_46_225" cx="0" cy="0" r="1" gradientUnits="userSpaceOnUse" gradientTransform="translate(12.0904 46.9522) scale(51.671 51.8163)">
<stop stop-color="#277DC1"/>
<stop offset="1" stop-color="#2E378E"/>
</radialGradient>
<radialGradient id="paint1_radial_46_225" cx="0" cy="0" r="1" gradientUnits="userSpaceOnUse" gradientTransform="translate(12.0903 46.9521) scale(51.671 51.8163)">
<stop stop-color="#277DC1"/>
<stop offset="1" stop-color="#2E378E"/>
</radialGradient>
</defs>
</svg>
