<svg width="49" height="58" viewBox="0 0 49 58" fill="none" xmlns="http://www.w3.org/2000/svg">
<g clip-path="url(#clip0_43_78)">
<path d="M48.665 16.9097C49.1309 17.1749 48.9734 17.6373 48.9734 18.0271C48.9823 28.7486 48.9823 39.47 48.9734 50.1914C48.9734 54.7701 45.7542 57.9911 41.2504 57.9956C32.2281 57.9956 23.2125 57.9956 14.2035 57.9956C9.70195 57.9956 6.49385 54.7611 6.48941 50.1824C6.4761 36.0624 6.4761 21.9432 6.48941 7.82478C6.48941 3.23927 9.69972 0.000175908 14.1946 0.0024426C20.4067 0.0024426 26.6129 0.0167988 32.8131 0.0455102C32.8131 0.42178 32.8375 0.79805 32.8375 1.17885C32.8375 6.0817 32.8597 10.9823 32.8175 15.8829C32.8175 16.7895 33.0904 17.0479 33.949 17.0162C35.502 16.9527 37.0551 17.0162 38.6081 16.9958C41.9582 16.9701 45.3105 16.9414 48.665 16.9097Z" fill="#1565C0"/>
<path d="M48.665 16.9095C45.309 16.9367 41.953 16.9624 38.597 16.9865C37.044 16.9865 35.4909 16.9435 33.9379 17.0069C33.0793 17.0409 32.7976 16.7803 32.8064 15.8736C32.8486 10.973 32.8264 6.07244 32.8264 1.1696C32.8264 0.793329 32.8109 0.417058 32.802 0.0362549C34.8121 2.13067 36.8354 4.21149 38.8277 6.32177C41.9057 9.57674 44.9703 12.8446 48.0216 16.1252C48.259 16.3745 48.4542 16.6488 48.665 16.9095Z" fill="#78A9E0"/>
<path d="M43.9283 34.6644H0V48.9446H43.9283V34.6644Z" fill="#78A9E0"/>
<path d="M10.6493 45.8392V37.9421H13.6178C14.1697 37.9365 14.7175 38.0405 15.2307 38.2481C15.7098 38.4415 16.1481 38.7269 16.5219 39.089C16.8896 39.4444 17.1838 39.8713 17.3872 40.3448C17.5928 40.8359 17.6988 41.3645 17.6988 41.8986C17.6988 42.4327 17.5928 42.9613 17.3872 43.4524C17.1852 43.9246 16.8898 44.349 16.5197 44.6991C16.1424 45.0572 15.703 45.3401 15.224 45.5332C14.7108 45.7409 14.1631 45.8448 13.6111 45.8392H10.6493ZM12.2489 44.384H13.5956C14.2498 44.3897 14.8795 44.1296 15.3461 43.661C15.5693 43.4382 15.746 43.1713 15.8652 42.8767C15.9882 42.5672 16.05 42.236 16.0471 41.902C16.0485 41.5682 15.9867 41.2372 15.8652 40.9273C15.7462 40.6272 15.5697 40.3544 15.3461 40.1249C15.1219 39.8958 14.8558 39.714 14.5629 39.59C14.2599 39.4614 13.9348 39.3959 13.6067 39.3973H12.2489V44.384Z" fill="white"/>
<path d="M22.6031 45.9616C22.0531 45.9669 21.5074 45.8621 20.9968 45.6533C20.0202 45.2523 19.238 44.4735 18.8204 43.4864C18.6124 42.9812 18.5053 42.4387 18.5053 41.8906C18.5053 41.3426 18.6124 40.8001 18.8204 40.2949C19.2372 39.3077 20.0198 38.5294 20.9968 38.1302C22.0255 37.716 23.1696 37.716 24.1983 38.1302C24.6835 38.3303 25.1259 38.6252 25.5006 38.9983C25.876 39.3761 26.1741 39.8263 26.3775 40.3228C26.581 40.8194 26.6858 41.3523 26.6858 41.8906C26.6858 42.4289 26.581 42.9618 26.3775 43.4584C26.1741 43.9549 25.876 44.4052 25.5006 44.7829C25.126 45.1568 24.6836 45.4525 24.1983 45.6533C23.6912 45.8611 23.1494 45.9658 22.6031 45.9616ZM22.6031 44.4633C22.9332 44.4663 23.2604 44.3991 23.5637 44.2661C23.856 44.1375 24.1206 43.9511 24.3422 43.7177C24.5638 43.4843 24.738 43.2085 24.855 42.9061C25.1029 42.2497 25.1029 41.5225 24.855 40.8661C24.7333 40.566 24.5572 40.2922 24.3358 40.0591C24.1143 39.8308 23.8523 39.6477 23.5637 39.5197C23.2633 39.387 22.9392 39.3199 22.612 39.3225C22.2861 39.3193 21.963 39.3829 21.6616 39.5094C21.3602 39.636 21.0866 39.8229 20.8571 40.0591C20.6357 40.2922 20.4596 40.566 20.3379 40.8661C20.2117 41.185 20.1484 41.5262 20.1515 41.8702C20.1476 42.2253 20.2109 42.5778 20.3379 42.9084C20.4548 43.2119 20.6297 43.4885 20.8526 43.7221C21.0755 43.9556 21.3417 44.1413 21.6358 44.2684C21.9417 44.4004 22.271 44.4668 22.6031 44.4633Z" fill="white"/>
<path d="M31.5884 45.9503C31.0363 45.9549 30.4886 45.8503 29.9755 45.642C29.4891 45.4436 29.0453 45.1502 28.6687 44.7784C28.2973 44.4109 28.001 43.9717 27.7968 43.4864C27.5889 42.9812 27.4818 42.4387 27.4818 41.8906C27.4818 41.3426 27.5889 40.8001 27.7968 40.2949C28.0055 39.8068 28.3072 39.3661 28.6843 38.9983C29.0614 38.625 29.506 38.3302 29.9932 38.1302C30.5035 37.9197 31.0493 37.8142 31.5995 37.8197C32.0178 37.8181 32.434 37.8784 32.8353 37.9987C33.2258 38.116 33.5989 38.2868 33.9446 38.5065C34.2818 38.7173 34.5818 38.9848 34.832 39.2975L33.7493 40.3788C33.4954 40.0401 33.1661 39.7681 32.7887 39.5854C32.4195 39.4083 32.0162 39.3177 31.6084 39.3202C31.2747 39.3174 30.944 39.3845 30.6366 39.5174C30.3432 39.6425 30.077 39.8259 29.8535 40.0569C29.6306 40.2887 29.4543 40.5628 29.3343 40.8638C29.2049 41.1898 29.1408 41.5389 29.1457 41.8906C29.1428 42.2367 29.2085 42.5798 29.3388 42.8993C29.4618 43.2033 29.642 43.4798 29.869 43.713C30.0961 43.9439 30.3661 44.1258 30.6633 44.248C30.985 44.3788 31.3287 44.4443 31.675 44.4407C32.0681 44.4436 32.4567 44.3544 32.8109 44.18C33.1692 44.004 33.4857 43.7503 33.7382 43.4365L34.7766 44.4973C34.5293 44.8015 34.2365 45.0639 33.9091 45.2748C33.5652 45.4962 33.1915 45.665 32.7998 45.7757C32.4062 45.8927 31.9983 45.9515 31.5884 45.9503Z" fill="white"/>
</g>
<defs>
<clipPath id="clip0_43_78">
<rect width="49" height="58" fill="white"/>
</clipPath>
</defs>
</svg>
