<svg width="62" height="49" viewBox="0 0 62 49" fill="none" xmlns="http://www.w3.org/2000/svg">
<path d="M30.4552 39.7787H5.32229C4.92669 39.778 4.53822 39.6753 4.19583 39.481C3.85345 39.2866 3.56918 39.0074 3.37152 38.6712C3.17386 38.3351 3.06976 37.954 3.06965 37.566C3.06954 37.178 3.17342 36.7967 3.37089 36.4605L22.1282 4.59552C22.326 4.25907 22.6107 3.97965 22.9536 3.78537C23.2965 3.5911 23.6855 3.48881 24.0815 3.48881C24.4775 3.48881 24.8665 3.5911 25.2094 3.78537C25.5522 3.97965 25.8369 4.25907 26.0347 4.59552L36.0439 21.5975C36.8734 21.0227 37.7574 20.5275 38.6837 20.1188L28.6688 3.10754C28.2049 2.31878 27.5374 1.66373 26.7335 1.20829C25.9295 0.752843 25.0175 0.513062 24.089 0.513062C23.1606 0.513062 22.2486 0.752843 21.4446 1.20829C20.6407 1.66373 19.9732 2.31878 19.5092 3.10754L0.742487 34.9726C0.278678 35.7612 0.0345898 36.6557 0.0347291 37.5661C0.0348683 38.4766 0.279235 39.371 0.743286 40.1595C1.20734 40.948 1.87474 41.6029 2.67848 42.0585C3.48222 42.514 4.39401 42.7541 5.32229 42.7547H32.0293C31.3961 41.8216 30.8683 40.8238 30.4552 39.7787Z" fill="#3B4145"/>
<path d="M29.3914 34.1988C29.3917 31.4772 30.1256 28.804 31.5187 26.4503C32.9118 24.0965 34.9145 22.1458 37.324 20.7958L27.3489 3.85149C27.0176 3.28915 26.5413 2.82223 25.9677 2.4976C25.3942 2.17297 24.7437 2.00208 24.0815 2.00208C23.4193 2.00208 22.7687 2.17297 22.1952 2.4976C21.6216 2.82223 21.1453 3.28915 20.814 3.85149L2.0567 35.7165C1.72545 36.2789 1.55098 36.9168 1.55081 37.5663C1.55065 38.2157 1.7248 38.8538 2.05577 39.4163C2.38674 39.9788 2.86285 40.4459 3.43625 40.7707C4.00965 41.0955 4.66013 41.2666 5.3223 41.2667H31.1398C29.9885 39.082 29.3889 36.6581 29.3914 34.1988Z" fill="#FFD764"/>
<path d="M24.1915 35.5155C23.8675 35.5216 23.5456 35.4627 23.2456 35.3424C22.9456 35.2222 22.6738 35.0431 22.4468 34.8162C22.2192 34.5988 22.0389 34.3383 21.917 34.0506C21.7951 33.7628 21.7341 33.4538 21.7376 33.1422C21.7336 32.6664 21.8742 32.2003 22.1413 31.8032C22.4085 31.4061 22.7902 31.096 23.2377 30.9124C23.6852 30.7289 24.1783 30.6802 24.6542 30.7725C25.1301 30.8649 25.5671 31.0941 25.9096 31.431C26.1495 31.6488 26.3397 31.9138 26.4678 32.2087C26.5959 32.5036 26.659 32.8217 26.653 33.1422C26.6558 33.4567 26.5911 33.7684 26.463 34.0568C26.3349 34.3452 26.1464 34.6039 25.9096 34.8162C25.685 35.0388 25.4173 35.2153 25.1223 35.3354C24.8273 35.4555 24.5109 35.5167 24.1915 35.5155ZM22.5853 29.0056L22.0694 14.2839H26.2851L25.7693 29.0056H22.5853Z" fill="#3B4145"/>
<path d="M45.1315 46.6604C42.6185 46.6604 40.1619 45.9296 38.0725 44.5602C35.983 43.1909 34.3545 41.2446 33.3928 38.9675C32.4311 36.6905 32.1795 34.1848 32.6697 31.7675C33.16 29.3501 34.3701 27.1296 36.1471 25.3868C37.924 23.644 40.188 22.4571 42.6527 21.9763C45.1174 21.4954 47.6721 21.7422 49.9938 22.6854C52.3155 23.6286 54.2999 25.2259 55.696 27.2752C57.0921 29.3246 57.8373 31.7339 57.8373 34.1986C57.8333 37.5025 56.4934 40.6699 54.1114 43.0061C51.7295 45.3423 48.5 46.6565 45.1315 46.6604ZM45.1315 24.1548C43.1061 24.1548 41.1262 24.7438 39.4421 25.8475C37.7581 26.9511 36.4455 28.5197 35.6704 30.355C34.8954 32.1903 34.6926 34.2098 35.0877 36.1581C35.4828 38.1064 36.4581 39.896 37.8903 41.3007C39.3225 42.7054 41.1472 43.6619 43.1336 44.0495C45.1201 44.437 47.1791 44.2381 49.0504 43.4779C50.9216 42.7177 52.5209 41.4304 53.6462 39.7787C54.7714 38.127 55.372 36.1851 55.372 34.1986C55.369 31.5357 54.2891 28.9828 52.3693 27.0998C50.4495 25.2169 47.8465 24.1577 45.1315 24.1548Z" fill="#3B4145"/>
<path d="M54.8409 40.9222L53.1954 42.7228L60.3001 48.9684L61.9455 47.1678L54.8409 40.9222Z" fill="#3B4145"/>
</svg>
