<svg width="45" height="58" viewBox="0 0 45 58" fill="none" xmlns="http://www.w3.org/2000/svg">
<path d="M43.8975 16.8734C44.3778 17.136 44.2154 17.5939 44.2154 17.98C44.2246 28.5972 44.2246 39.2143 44.2154 49.8315C44.2154 54.3657 40.8968 57.5553 36.2539 57.5598C26.953 57.5598 17.6589 57.5598 8.37166 57.5598C3.7311 57.5598 0.423924 54.3567 0.41935 49.8225C0.405627 35.8414 0.405627 21.8595 0.41935 7.87688C0.41935 3.33597 3.72881 0.128372 8.36252 0.130616C14.7665 0.130616 21.1643 0.144833 27.556 0.173265C27.556 0.545876 27.5812 0.918486 27.5812 1.29559C27.5812 6.15075 27.6041 11.0037 27.5606 15.8566C27.5606 16.7544 27.8419 17.0103 28.727 16.9789C30.328 16.9161 31.929 16.9789 33.53 16.9587C36.9835 16.9333 40.4394 16.9048 43.8975 16.8734Z" fill="#78A9E0"/>
<path d="M43.8976 16.8732C40.4379 16.9001 36.9783 16.9256 33.5186 16.9495C31.9176 16.9607 30.3166 16.9068 28.7157 16.9697C27.8305 17.0034 27.5401 16.7452 27.5492 15.8474C27.5927 10.9945 27.5698 6.14154 27.5698 1.28638C27.5698 0.913773 27.5538 0.541162 27.5446 0.164062C29.6168 2.23811 31.7026 4.29869 33.7565 6.38845C36.9295 9.61176 40.0887 12.8478 43.2343 16.0965C43.479 16.3434 43.6803 16.615 43.8976 16.8732Z" fill="#1565C0"/>
<path d="M19.0022 26.8237C19.9491 26.8237 20.8502 26.8102 21.7468 26.8237C23.0413 26.8484 24.3495 26.7878 25.6349 26.9584C28.2857 27.313 29.9804 28.9022 30.9479 31.2928C31.7346 33.2321 31.9473 35.2703 32.0251 37.3308C32.0251 37.598 32.0251 37.8628 32.0365 38.1299C32.0503 38.4846 31.8902 38.7876 31.5517 38.8325C31.2663 38.8454 30.9845 38.7666 30.7489 38.608C30.5324 38.4244 30.3403 38.2148 30.1771 37.984C28.5441 36.2085 26.5429 35.2703 24.0682 35.3354C22.5175 35.3758 20.9623 35.3354 19.4116 35.3354H19.0022C19.0022 36.222 19.0022 37.075 19.0022 37.9279C19.0022 38.3252 18.9496 38.6731 18.5219 38.8258C18.0943 38.9784 17.8358 38.7495 17.5728 38.4868C15.2857 36.2422 12.9986 33.9923 10.7114 31.7372C10.1808 31.2187 10.1808 30.9067 10.7114 30.3904C12.9986 28.1458 15.2895 25.8959 17.5842 23.6408C17.861 23.3669 18.1446 23.1312 18.5723 23.3131C19 23.4949 19.0297 23.8585 19.016 24.2446C18.9954 25.102 19.0022 25.9258 19.0022 26.8237Z" fill="white"/>
</svg>
