<svg width="19" height="25" viewBox="0 0 19 25" fill="none" xmlns="http://www.w3.org/2000/svg">
<g opacity="0.5" clip-path="url(#clip0_46_1108)">
<path d="M9.484 12.2C12.256 12.2 14.504 9.47 14.504 6.1C14.504 2.73 13.766 0 9.484 0C5.202 0 4.464 2.73 4.464 6.1C4.464 9.47 6.712 12.2 9.484 12.2Z" fill="white"/>
<path d="M18.954 21.2641C18.861 15.3981 18.095 13.7261 12.232 12.6641C10.667 14.0671 8.297 14.0671 6.732 12.6641C0.931998 13.7111 0.12 15.3571 0.0139999 21.0691C0.00499994 21.5351 0.001 21.5601 0 21.5061C0 21.6061 0 21.7951 0 22.1221C0 22.1221 1.4 24.9361 9.481 24.9361C17.562 24.9361 18.962 22.1221 18.962 22.1221C18.962 21.9121 18.962 21.7661 18.962 21.6661C18.952 21.5321 18.95 21.3981 18.954 21.2641Z" fill="white"/>
</g>
<defs>
<clipPath id="clip0_46_1108">
<rect width="18.965" height="24.936" fill="white"/>
</clipPath>
</defs>
</svg>
