<svg width="23" height="23" viewBox="0 0 23 23" fill="none" xmlns="http://www.w3.org/2000/svg">
<g clip-path="url(#clip0_46_1114)">
<path d="M21.154 15.1C19.761 15.102 18.377 14.882 17.054 14.447C16.421 14.242 15.727 14.389 15.231 14.831L12.644 16.78C9.86 15.395 7.604 13.139 6.218 10.356L8.113 7.837C8.607 7.344 8.783 6.617 8.57 5.953C8.134 4.627 7.912 3.241 7.914 1.845C7.912 0.827 7.087 0.002 6.069 0H1.846C0.827 0.001 0.001 0.827 0 1.846C0.013 13.524 9.476 22.987 21.154 23C22.173 22.999 22.999 22.173 23 21.154V16.942C22.997 15.925 22.172 15.101 21.154 15.1Z" fill="white" fill-opacity="0.5"/>
</g>
<defs>
<clipPath id="clip0_46_1114">
<rect width="23" height="23" fill="white"/>
</clipPath>
</defs>
</svg>
