<svg width="229" height="30" viewBox="0 0 229 30" fill="none" xmlns="http://www.w3.org/2000/svg">
<g clip-path="url(#clip0_139_53)">
<path d="M75.0746 10.2644C75.5475 10.2866 76.02 10.2147 76.4649 10.053C76.9097 9.89119 77.3181 9.64273 77.6662 9.32199C77.9824 9.02897 78.2332 8.6726 78.4024 8.27611C78.5715 7.87963 78.6552 7.45194 78.6479 7.02094C78.6538 6.5936 78.5695 6.16983 78.4003 5.77736C78.2311 5.38489 77.981 5.03257 77.6662 4.74345C77.3181 4.42271 76.9097 4.17425 76.4649 4.01248C76.02 3.85071 75.5475 3.77884 75.0746 3.80104H70.7552V10.2644H75.0746ZM75.1257 1.25654C75.9429 1.22299 76.7586 1.35259 77.5251 1.63777C78.2917 1.92296 78.9938 2.35801 79.5903 2.91754C80.1494 3.44233 80.5918 4.07888 80.8888 4.78584C81.1858 5.49279 81.3307 6.25432 81.3141 7.02094C81.3298 7.7886 81.1846 8.55105 80.8877 9.25915C80.5908 9.96725 80.1488 10.6053 79.5903 11.1322C78.996 11.6957 78.2946 12.1341 77.5276 12.4214C76.7607 12.7087 75.9439 12.8392 75.1257 12.805H70.7474V19.6335H68.1558V1.25654H75.1257Z" fill="#ACACAC"/>
<path d="M86.4934 16.0013C87.1465 16.6536 87.978 17.0979 88.8833 17.2782C89.7885 17.4584 90.7268 17.3666 91.5799 17.0142C92.433 16.6618 93.1626 16.0646 93.6767 15.298C94.1908 14.5315 94.4663 13.6298 94.4686 12.7068C94.4778 12.089 94.3611 11.4758 94.1255 10.9047C93.8898 10.3335 93.5403 9.81638 93.0982 9.38481C92.6685 8.94611 92.1557 8.59757 91.5896 8.35963C91.0236 8.12168 90.4157 7.99912 89.8017 7.99912C89.1877 7.99912 88.5798 8.12168 88.0138 8.35963C87.4477 8.59757 86.9348 8.94611 86.5052 9.38481C86.0638 9.81694 85.7148 10.3342 85.4792 10.9052C85.2436 11.4762 85.1265 12.0892 85.1348 12.7068C85.1248 13.3195 85.2401 13.9279 85.4738 14.4944C85.7074 15.061 86.0544 15.5737 86.4934 16.0013ZM84.6322 7.67277C85.2301 7.00569 85.9637 6.47418 86.7838 6.11388C87.604 5.75358 88.4917 5.57284 89.3874 5.58377C90.4781 5.57886 91.5474 5.88537 92.4699 6.46727C93.3642 6.99669 94.0858 7.77418 94.5471 8.70549L94.6728 5.78403H96.9345V19.6335H94.6728L94.5471 16.7435C94.0806 17.6609 93.3593 18.4244 92.4699 18.9424C91.5446 19.5162 90.4761 19.817 89.3874 19.8102C88.4904 19.8205 87.6015 19.6399 86.7796 19.2805C85.9577 18.921 85.2217 18.3908 84.6204 17.7251C83.3293 16.3818 82.6233 14.5815 82.6571 12.7186C82.6413 11.7901 82.8087 10.8676 83.1496 10.0039C83.4905 9.1401 83.9983 8.35198 84.644 7.68455" fill="#ACACAC"/>
<path d="M99.2984 5.78403H101.238L101.541 1.25655H103.602V5.78403H106.924V7.99869H103.602V14.4424C103.549 15.2462 103.79 16.0419 104.281 16.6806C104.514 16.9414 104.802 17.1471 105.124 17.2829C105.446 17.4187 105.794 17.4813 106.143 17.466C106.503 17.4676 106.861 17.4038 107.199 17.2775L107.831 19.4647C107.194 19.7339 106.508 19.8676 105.817 19.8573C105.196 19.8809 104.578 19.7758 104 19.5488C103.422 19.3217 102.898 18.9776 102.459 18.538C101.596 17.6584 101.164 16.3037 101.164 14.4738V7.99869H99.2984V5.78403Z" fill="#ACACAC"/>
<path d="M111.518 11.8272H120.401C120.376 11.2957 120.245 10.7746 120.015 10.2944C119.786 9.81429 119.463 9.38486 119.065 9.03142C118.217 8.26244 117.104 7.85277 115.959 7.88875C114.83 7.85888 113.734 8.26855 112.901 9.03142C112.089 9.74486 111.593 10.7496 111.518 11.8272ZM110.965 7.67278C112.286 6.35276 114.078 5.61131 115.946 5.61131C117.814 5.61131 119.605 6.35276 120.927 7.67278C121.582 8.32911 122.098 9.11072 122.444 9.97092C122.79 10.8311 122.959 11.7523 122.941 12.6793C122.941 12.7461 122.918 13.1348 122.866 13.8573H111.554C111.733 14.9043 112.305 15.8436 113.152 16.4843C114.205 17.2768 115.52 17.6411 116.831 17.5042C118.142 17.3672 119.353 16.7391 120.22 15.7461L122.207 16.9751C121.525 17.8712 120.636 18.5881 119.615 19.0641C118.575 19.5789 117.43 19.8476 116.27 19.8495C115.301 19.8743 114.338 19.7018 113.438 19.3427C112.538 18.9836 111.721 18.4453 111.035 17.7605C110.354 17.1087 109.814 16.3229 109.45 15.4525C109.087 14.5822 108.907 13.646 108.923 12.7029C108.91 11.7723 109.086 10.8488 109.44 9.98828C109.795 9.12773 110.32 8.34802 110.984 7.69634" fill="#ACACAC"/>
<path d="M125.717 19.6335V5.78404H127.983L128.109 8.22645C128.503 7.44677 129.098 6.78655 129.832 6.31414C130.617 5.81712 131.531 5.56303 132.459 5.58378C133.232 5.55604 134.002 5.70096 134.711 6.00799C135.421 6.31502 136.054 6.77643 136.563 7.35864C137.61 8.54189 138.134 10.2827 138.134 12.5812V19.6335H135.668V12.5654C135.668 11.0694 135.318 9.93456 134.611 9.15315C134.267 8.78555 133.851 8.49252 133.389 8.29219C132.927 8.09186 132.429 7.98849 131.925 7.98849C131.422 7.98849 130.924 8.09186 130.462 8.29219C130 8.49252 129.584 8.78555 129.24 9.15315C128.525 9.93849 128.171 11.0654 128.171 12.5772V19.6335H125.717Z" fill="#ACACAC"/>
<path d="M139.861 5.78403H141.797L142.099 1.25655H144.161V5.78403H147.483V7.99869H144.161V14.4424C144.108 15.2462 144.349 16.0419 144.84 16.6806C145.073 16.9414 145.361 17.1471 145.682 17.2829C146.004 17.4187 146.353 17.4813 146.702 17.466C147.063 17.4715 147.422 17.4116 147.762 17.2893L148.39 19.4764C147.753 19.746 147.067 19.8798 146.376 19.8691C145.755 19.8927 145.137 19.7876 144.559 19.5606C143.981 19.3335 143.457 18.9893 143.018 18.5497C142.154 17.6702 141.723 16.3154 141.723 14.4856V7.99869H139.861V5.78403Z" fill="#ACACAC"/>
<path d="M151.257 19.6335V1.25655H153.974L160.944 13.0838L167.886 1.25655H170.635V19.6335H168.043V5.58377L161.698 16.3783H160.162L153.848 5.58377V19.6335H151.257Z" fill="white"/>
<path d="M177.318 16.0013C177.971 16.6536 178.803 17.0979 179.708 17.2782C180.613 17.4584 181.551 17.3666 182.405 17.0142C183.258 16.6618 183.987 16.0646 184.501 15.298C185.015 14.5315 185.291 13.6298 185.293 12.7068C185.302 12.089 185.186 11.4758 184.95 10.9047C184.714 10.3335 184.365 9.81638 183.923 9.38481C183.493 8.94622 182.981 8.59777 182.415 8.35987C181.85 8.12198 181.242 7.99944 180.628 7.99944C180.015 7.99944 179.407 8.12198 178.841 8.35987C178.276 8.59777 177.763 8.94622 177.334 9.38481C176.891 9.81619 176.541 10.3332 176.305 10.9043C176.068 11.4755 175.951 12.0888 175.959 12.7068C175.949 13.3195 176.065 13.9279 176.298 14.4944C176.532 15.061 176.879 15.5737 177.318 16.0013ZM175.457 7.67277C176.055 7.00569 176.788 6.47418 177.608 6.11388C178.429 5.75358 179.316 5.57284 180.212 5.58377C181.303 5.57886 182.372 5.88537 183.294 6.46727C184.189 6.99669 184.91 7.77418 185.372 8.70549L185.497 5.78403H187.759V19.6335H185.497L185.372 16.7435C184.905 17.6609 184.184 18.4244 183.294 18.9424C182.369 19.5162 181.301 19.817 180.212 19.8102C179.315 19.8205 178.426 19.6399 177.604 19.2805C176.782 18.921 176.046 18.3908 175.445 17.7251C174.154 16.3818 173.448 14.5815 173.482 12.7186C173.466 11.7901 173.633 10.8676 173.974 10.0039C174.315 9.1401 174.823 8.35198 175.469 7.68455" fill="white"/>
<path d="M191.36 19.6335V0H193.716V11.9764L199.904 5.78403H202.822L197.513 11.2971L203.513 19.6335H200.619L195.942 13.1348L193.7 15.3141V19.6335H191.36Z" fill="white"/>
<path d="M206.454 11.8272H215.336C215.312 11.296 215.182 10.775 214.953 10.2949C214.725 9.81478 214.402 9.3852 214.005 9.03142C213.157 8.26244 212.044 7.85277 210.899 7.88875C209.765 7.85477 208.662 8.26472 207.825 9.03142C207.021 9.74402 206.529 10.7437 206.454 11.8155M205.901 7.661C207.222 6.34098 209.014 5.59953 210.882 5.59953C212.749 5.59953 214.541 6.34098 215.863 7.661C216.518 8.31733 217.033 9.09894 217.38 9.95914C217.726 10.8193 217.895 11.7405 217.877 12.6675C217.877 12.7343 217.853 13.123 217.802 13.8456H206.482C206.658 14.8928 207.228 15.8328 208.076 16.4725C209.129 17.265 210.444 17.6293 211.755 17.4924C213.066 17.3555 214.277 16.7273 215.144 15.7343L217.131 16.9634C216.449 17.8594 215.56 18.5764 214.539 19.0524C213.499 19.5671 212.354 19.8358 211.194 19.8377C210.225 19.8625 209.262 19.6901 208.362 19.3309C207.462 18.9718 206.645 18.4335 205.959 17.7487C205.278 17.0969 204.738 16.3111 204.374 15.4407C204.011 14.5704 203.831 13.6342 203.847 12.6911C203.834 11.7605 204.01 10.837 204.364 9.9765C204.719 9.11595 205.244 8.33624 205.908 7.68456" fill="white"/>
<path d="M220.649 5.78404H222.911L223.064 8.04974C223.451 7.31117 224.052 6.70636 224.788 6.31414C225.575 5.90257 226.452 5.69468 227.34 5.70943H227.466C227.812 5.71026 228.157 5.73519 228.499 5.78404L227.996 8.14006C227.838 8.1099 227.678 8.09282 227.517 8.08901C226.93 8.0689 226.346 8.16778 225.799 8.37968C225.251 8.59159 224.753 8.91213 224.332 9.32199C223.505 10.144 223.09 11.4437 223.088 13.2212V19.6335H220.649V5.78404Z" fill="white"/>
<path d="M69.161 24.6244V29.0576H70.1741C70.4845 29.0693 70.7939 29.0176 71.0836 28.9055C71.3733 28.7934 71.637 28.6234 71.8586 28.4058C72.0629 28.1992 72.2238 27.9538 72.3317 27.684C72.4396 27.4142 72.4924 27.1256 72.4869 26.8351C72.4935 26.5427 72.4393 26.2521 72.3278 25.9817C72.2163 25.7114 72.0498 25.4671 71.839 25.2644C71.6177 25.0493 71.3549 24.8817 71.0666 24.7716C70.7783 24.6616 70.4706 24.6115 70.1623 24.6244H69.161ZM70.1741 23.7762C70.5994 23.7612 71.0233 23.8313 71.4212 23.9823C71.819 24.1334 72.1827 24.3623 72.4908 24.6558C73.0644 25.2377 73.386 26.0219 73.386 26.839C73.386 27.6561 73.0644 28.4404 72.4908 29.0223C72.1811 29.3179 71.8149 29.5478 71.414 29.6983C71.0132 29.8488 70.5861 29.9167 70.1584 29.8979H68.2814V23.7762H70.1741Z" fill="white"/>
<path d="M76.1113 29.8979H75.2474V23.7762H76.1113V29.8979Z" fill="white"/>
<path d="M78.8756 24.6165C79.1645 24.3183 79.5115 24.0826 79.8952 23.9239C80.2788 23.7652 80.6909 23.6868 81.106 23.6937C81.5923 23.6915 82.0724 23.8032 82.5078 24.0196C82.9368 24.2337 83.3124 24.5409 83.6073 24.9188L82.822 25.3861C82.611 25.1324 82.347 24.9282 82.0484 24.7877C81.7499 24.6473 81.4242 24.5741 81.0942 24.5733C80.7959 24.5692 80.4998 24.6255 80.2238 24.7389C79.9477 24.8523 79.6975 25.0203 79.4882 25.233C79.2734 25.4392 79.1035 25.6877 78.9893 25.9627C78.8751 26.2377 78.8191 26.5334 78.8246 26.8312C78.8225 27.1303 78.8797 27.427 78.9929 27.7039C79.1061 27.9809 79.273 28.2327 79.484 28.4448C79.695 28.6569 79.946 28.8251 80.2223 28.9397C80.4987 29.0544 80.795 29.1131 81.0942 29.1126C81.6284 29.1318 82.1491 28.9432 82.5471 28.5864C82.9322 28.2285 83.1607 27.7333 83.1832 27.2081H80.89V26.4228H84.1178C84.1434 26.564 84.1553 26.7073 84.1531 26.8508C84.1701 27.2686 84.1035 27.6857 83.9572 28.0774C83.8108 28.4692 83.5878 28.8278 83.301 29.1322C83.0141 29.4247 82.6693 29.6541 82.2886 29.8055C81.9079 29.957 81.4997 30.0272 81.0903 30.0118C80.4639 30.0178 79.85 29.8365 79.3275 29.491C78.8049 29.1455 78.3976 28.6516 78.1578 28.0729C77.9181 27.4942 77.8568 26.857 77.9819 26.2432C78.107 25.6294 78.4128 25.067 78.8599 24.6283" fill="white"/>
<path d="M86.8861 29.8979H86.0223V23.7762H86.8861V29.8979Z" fill="white"/>
<path d="M88.5982 23.7762H93.2042V24.6086H91.3311V29.8979H90.4673V24.6086H88.5982V23.7762Z" fill="white"/>
<path d="M97.5471 27.4869L96.6165 24.9385L95.6937 27.4869H97.5471ZM96.1453 23.7722H97.0838L99.3455 29.8979H98.4071L97.8181 28.3272H95.462L94.8848 29.8979H93.9267L96.1453 23.7722Z" fill="white"/>
<path d="M104.921 29.8979H100.971V23.7762H101.835V29.034H104.921V29.8979Z" fill="white"/>
<path d="M112.846 27.4869L111.911 24.9424L110.992 27.4869H112.846ZM111.444 23.7722H112.382L114.624 29.894H113.682L113.097 28.3233H110.741L110.16 29.894H109.205L111.444 23.7722Z" fill="white"/>
<path d="M115.901 29.0262L116.446 28.4725C116.661 28.6995 116.92 28.8805 117.207 29.0047C117.494 29.1289 117.803 29.1936 118.115 29.195C118.438 29.2099 118.758 29.1204 119.026 28.9398C119.138 28.8592 119.229 28.7522 119.29 28.6282C119.351 28.5042 119.38 28.3671 119.376 28.2291C119.378 28.041 119.312 27.8585 119.191 27.7147C119.056 27.5659 118.892 27.4468 118.708 27.3652C118.494 27.2711 118.275 27.1886 118.052 27.1178C117.817 27.0432 117.577 26.9607 117.342 26.8626C117.114 26.773 116.895 26.6639 116.686 26.5367C116.486 26.4109 116.321 26.2384 116.203 26.034C116.075 25.8022 116.012 25.5407 116.018 25.2762C116.014 25.0567 116.061 24.8392 116.154 24.6404C116.247 24.4417 116.385 24.2669 116.556 24.1296C116.972 23.8088 117.489 23.6485 118.013 23.678C118.395 23.6801 118.772 23.7617 119.12 23.9175C119.491 24.0828 119.813 24.3412 120.055 24.6675L119.442 25.1309C119.289 24.9185 119.081 24.7505 118.842 24.644C118.595 24.5301 118.328 24.4686 118.056 24.4634H118.013C117.721 24.4509 117.432 24.5276 117.185 24.6833C117.086 24.743 117.004 24.8271 116.947 24.9274C116.89 25.0278 116.859 25.1411 116.859 25.2565C116.857 25.4305 116.923 25.5983 117.043 25.7238C117.179 25.8645 117.344 25.9731 117.526 26.0419C117.723 26.1243 117.942 26.199 118.178 26.2736C118.414 26.3482 118.657 26.4306 118.897 26.5249C119.127 26.6139 119.348 26.7257 119.556 26.8586C119.757 26.9928 119.922 27.175 120.035 27.3887C120.164 27.63 120.228 27.9007 120.22 28.1741C120.229 28.4229 120.181 28.6704 120.08 28.8978C119.978 29.1251 119.826 29.3262 119.635 29.4856C119.211 29.8228 118.68 29.9969 118.139 29.9764H118.107C117.692 29.9829 117.28 29.8999 116.899 29.7333C116.518 29.5666 116.178 29.3201 115.901 29.0105" fill="white"/>
<path d="M121.791 29.0262L122.336 28.4725C122.551 28.6995 122.81 28.8805 123.097 29.0047C123.384 29.1289 123.693 29.1936 124.005 29.195C124.328 29.2093 124.648 29.1199 124.916 28.9398C125.028 28.859 125.118 28.7518 125.178 28.6278C125.239 28.5038 125.267 28.3668 125.262 28.2291C125.268 28.0404 125.202 27.8566 125.077 27.7147C124.945 27.5651 124.781 27.4459 124.598 27.3652C124.384 27.2711 124.165 27.1886 123.942 27.1178C123.707 27.0432 123.467 26.9607 123.232 26.8626C123.004 26.7738 122.784 26.6647 122.576 26.5367C122.375 26.4121 122.209 26.2393 122.093 26.034C121.965 25.8022 121.902 25.5407 121.908 25.2762C121.905 25.0567 121.951 24.8392 122.044 24.6404C122.137 24.4417 122.275 24.2669 122.446 24.1296C122.862 23.8088 123.379 23.6485 123.903 23.678C124.285 23.6801 124.662 23.7617 125.01 23.9175C125.381 24.0828 125.703 24.3412 125.945 24.6675L125.332 25.1309C125.178 24.9192 124.971 24.7515 124.732 24.644C124.485 24.5301 124.218 24.4686 123.946 24.4634H123.903C123.611 24.4502 123.322 24.5269 123.075 24.6833C122.975 24.7424 122.893 24.8263 122.836 24.9268C122.779 25.0273 122.749 25.1409 122.749 25.2565C122.747 25.3428 122.762 25.4287 122.794 25.5089C122.825 25.5892 122.873 25.6623 122.933 25.7238C123.069 25.8645 123.234 25.9731 123.416 26.0419C123.613 26.1243 123.832 26.199 124.068 26.2736C124.304 26.3482 124.547 26.4306 124.787 26.5249C125.016 26.613 125.236 26.7249 125.442 26.8586C125.646 26.9916 125.812 27.174 125.925 27.3887C126.098 27.7338 126.154 28.1259 126.083 28.5052C126.012 28.8846 125.819 29.2303 125.533 29.4895C125.109 29.8267 124.578 30.0009 124.037 29.9804H124.005C123.59 29.9868 123.178 29.9039 122.797 29.7372C122.416 29.5705 122.076 29.3241 121.798 29.0144" fill="white"/>
<path d="M128.796 29.8979H127.932V23.7762H128.796V29.8979Z" fill="white"/>
<path d="M130.645 29.0262L131.191 28.4725C131.406 28.6998 131.664 28.8811 131.951 29.0053C132.238 29.1295 132.547 29.1941 132.86 29.195C133.183 29.2088 133.502 29.1194 133.771 28.9398C133.882 28.8585 133.972 28.7512 134.032 28.6274C134.092 28.5035 134.121 28.3667 134.116 28.2291C134.119 28.041 134.053 27.8585 133.932 27.7147C133.799 27.5641 133.634 27.4448 133.449 27.3652C133.236 27.2711 133.019 27.1885 132.797 27.1178C132.558 27.0432 132.322 26.9607 132.082 26.8626C131.856 26.773 131.638 26.6639 131.431 26.5366C131.229 26.4131 131.063 26.2401 130.948 26.034C130.818 25.8029 130.755 25.5409 130.763 25.2762C130.758 25.0569 130.804 24.8396 130.897 24.6408C130.989 24.442 131.126 24.2671 131.297 24.1296C131.714 23.8089 132.233 23.6486 132.758 23.678C133.14 23.6801 133.517 23.7617 133.865 23.9175C134.235 24.0822 134.556 24.3407 134.796 24.6675L134.183 25.1309C134.029 24.9185 133.822 24.7505 133.582 24.644C133.336 24.5301 133.069 24.4686 132.797 24.4633H132.754C132.461 24.4509 132.17 24.5275 131.921 24.6832C131.823 24.743 131.741 24.827 131.684 24.9274C131.627 25.0278 131.596 25.1411 131.596 25.2565C131.593 25.4305 131.66 25.5983 131.78 25.7238C131.917 25.8627 132.081 25.9711 132.263 26.0419C132.463 26.1243 132.679 26.199 132.919 26.2736C133.158 26.3482 133.394 26.4306 133.634 26.5249C133.864 26.613 134.085 26.7249 134.293 26.8586C134.496 26.9927 134.661 27.1748 134.776 27.3887C134.95 27.7336 135.005 28.1259 134.934 28.5054C134.863 28.8849 134.67 29.2307 134.384 29.4895C133.961 29.8274 133.432 30.0017 132.891 29.9804H132.86C132.444 29.9873 132.032 29.9046 131.651 29.7379C131.27 29.5712 130.93 29.3245 130.653 29.0144" fill="white"/>
<path d="M136.257 23.7762H140.863V24.6086H139.005V29.8979H138.145V24.6086H136.257V23.7762Z" fill="white"/>
<path d="M145.221 27.4869L144.291 24.9385L143.368 27.4869H145.221ZM143.819 23.7722H144.758L147 29.894H146.073L145.484 28.3233H143.128L142.551 29.894H141.593L143.819 23.7722Z" fill="white"/>
<path d="M148.649 29.8979V23.7762H149.513L152.937 28.3822V23.7762H153.809V29.8979H152.937L149.513 25.288V29.8979H148.649Z" fill="white"/>
<path d="M155.525 23.7762H160.127V24.6086H158.246V29.8979H157.382V24.6086H155.513L155.525 23.7762Z" fill="white"/>
<path d="M164.965 23.7762H168.915V24.6086H165.821V26.4031H168.746V27.2317H165.821V29.8979H164.965V23.7762Z" fill="white"/>
<path d="M171.236 26.8312C171.235 27.1304 171.293 27.4269 171.406 27.7036C171.52 27.9804 171.688 28.2319 171.899 28.4439C172.11 28.6558 172.361 28.824 172.637 28.9388C172.914 29.0535 173.21 29.1126 173.509 29.1126C173.957 29.1118 174.395 28.9783 174.768 28.729C175.14 28.4796 175.431 28.1256 175.602 27.7115C175.774 27.2974 175.819 26.8417 175.732 26.4021C175.645 25.9624 175.429 25.5583 175.113 25.2408C174.796 24.9233 174.393 24.7067 173.954 24.6181C173.514 24.5295 173.059 24.573 172.644 24.7431C172.229 24.9132 171.874 25.2022 171.624 25.5738C171.373 25.9455 171.238 26.3829 171.236 26.8312ZM171.279 24.6165C171.793 24.1033 172.47 23.7843 173.193 23.7139C173.916 23.6435 174.642 23.826 175.245 24.2303C175.849 24.6346 176.294 25.2358 176.504 25.9314C176.715 26.6269 176.677 27.3739 176.399 28.045C176.12 28.7162 175.617 29.2699 174.976 29.612C174.335 29.9541 173.595 30.0633 172.883 29.9211C172.17 29.7788 171.529 29.3939 171.068 28.832C170.607 28.27 170.356 27.5657 170.356 26.839C170.35 26.4251 170.428 26.0144 170.587 25.6321C170.746 25.2499 170.981 24.9042 171.279 24.6165Z" fill="white"/>
<path d="M180.817 26.7801C181.135 26.7936 181.445 26.6807 181.681 26.466C181.787 26.3655 181.872 26.2436 181.928 26.1083C181.984 25.9729 182.011 25.8271 182.007 25.6806C182.008 25.5386 181.98 25.3978 181.924 25.2673C181.867 25.1368 181.785 25.0195 181.681 24.9228C181.445 24.7081 181.135 24.5951 180.817 24.6086H179.376V26.7801H180.817ZM180.817 23.7762C181.093 23.765 181.368 23.8097 181.627 23.9075C181.885 24.0054 182.121 24.1544 182.321 24.3456C182.508 24.5199 182.656 24.7318 182.755 24.9672C182.854 25.2027 182.903 25.4565 182.898 25.712C182.901 26.1233 182.764 26.5233 182.509 26.846C182.254 27.1688 181.897 27.3948 181.496 27.4869L182.984 29.8979H181.979L180.585 27.6243H179.364V29.8979H178.5V23.7762H180.817Z" fill="white"/>
<path d="M190.158 26.7801C190.477 26.7936 190.787 26.6807 191.022 26.466C191.129 26.3655 191.213 26.2436 191.269 26.1082C191.326 25.9729 191.352 25.8271 191.348 25.6806C191.35 25.5386 191.321 25.3978 191.265 25.2673C191.209 25.1368 191.126 25.0195 191.022 24.9228C190.787 24.7081 190.477 24.5951 190.158 24.6086H188.713V26.7801H190.158ZM190.158 23.7762C190.434 23.7653 190.71 23.81 190.968 23.9079C191.227 24.0057 191.463 24.1545 191.662 24.3455C191.846 24.5244 191.991 24.7382 192.091 24.9742C192.19 25.2102 192.241 25.4638 192.241 25.7199C192.241 25.976 192.19 26.2296 192.091 26.4656C191.991 26.7016 191.846 26.9154 191.662 27.0942C191.464 27.2818 191.23 27.4277 190.975 27.5235C190.719 27.6192 190.447 27.6629 190.174 27.6518H188.713V29.9254H187.849V23.7762H190.158Z" fill="white"/>
<path d="M196.622 27.4869L195.691 24.9385L194.764 27.4869H196.622ZM195.224 23.7722H196.162L198.401 29.894H197.462L196.873 28.3233H194.517L193.94 29.894H192.982L195.224 23.7722Z" fill="white"/>
<path d="M199.115 23.7762H203.717V24.6086H201.832V29.8979H200.969V24.6086H199.099L199.115 23.7762Z" fill="white"/>
<path d="M205.429 23.7762H209.211V24.5615H206.285V26.3482H209.034V27.1335H206.285V29.0576H209.293V29.894H205.425L205.429 23.7762Z" fill="white"/>
<path d="M211.225 29.8979V23.7762H212.089L215.509 28.3822V23.7762H216.381V29.8979H215.509L212.089 25.288V29.8979H211.225Z" fill="white"/>
<path d="M218.093 23.7762H222.699V24.6086H220.826V29.8979H219.962V24.6086H218.093V23.7762Z" fill="white"/>
<path d="M224.034 29.0262L224.58 28.4725C224.795 28.6995 225.053 28.8805 225.34 29.0047C225.627 29.1289 225.936 29.1936 226.249 29.195C226.572 29.2099 226.891 29.1204 227.16 28.9398C227.272 28.8592 227.362 28.7522 227.423 28.6282C227.484 28.5042 227.514 28.3671 227.509 28.2291C227.511 28.041 227.446 27.8585 227.325 27.7147C227.19 27.5659 227.025 27.4468 226.842 27.3652C226.628 27.2711 226.409 27.1886 226.186 27.1178C225.95 27.0432 225.711 26.9607 225.475 26.8626C225.247 26.7738 225.028 26.6647 224.819 26.5367C224.619 26.4121 224.453 26.2393 224.336 26.034C224.209 25.8022 224.145 25.5407 224.152 25.2762C224.148 25.0567 224.194 24.8392 224.288 24.6404C224.381 24.4417 224.519 24.2669 224.69 24.1296C225.105 23.8088 225.622 23.6485 226.147 23.678C226.528 23.6801 226.905 23.7617 227.254 23.9175C227.625 24.0828 227.947 24.3412 228.188 24.6675L227.576 25.1309C227.417 24.9212 227.206 24.7572 226.963 24.6558C226.717 24.5419 226.449 24.4804 226.178 24.4751H226.135C225.843 24.4619 225.553 24.5387 225.306 24.695C225.207 24.7548 225.126 24.8388 225.069 24.9392C225.012 25.0396 224.981 25.1529 224.98 25.2683C224.978 25.3546 224.993 25.4404 225.025 25.5207C225.057 25.601 225.104 25.6741 225.165 25.7356C225.3 25.8762 225.465 25.9849 225.648 26.0537C225.844 26.1361 226.064 26.2107 226.3 26.2853C226.535 26.36 226.779 26.4424 227.018 26.5367C227.248 26.6248 227.468 26.7367 227.674 26.8704C227.877 27.0033 228.044 27.1858 228.157 27.4005C228.286 27.6418 228.35 27.9125 228.342 28.1859C228.351 28.4346 228.303 28.6822 228.201 28.9096C228.1 29.1369 227.948 29.338 227.757 29.4974C227.333 29.8346 226.802 30.0087 226.26 29.9882H226.229C225.813 29.9946 225.401 29.9117 225.021 29.7451C224.64 29.5784 224.299 29.3319 224.022 29.0223" fill="white"/>
<path d="M12.0118 29.8429H1.33508C1.09829 29.844 0.865489 29.782 0.66054 29.6634C0.455591 29.5448 0.285869 29.3739 0.168778 29.1681C0.0516859 28.9623 -0.00856273 28.729 -0.00579075 28.4922C-0.00301878 28.2555 0.0626741 28.0237 0.184552 27.8207L15.3141 1.99084C15.4315 1.78991 15.5995 1.62326 15.8014 1.50751C16.0033 1.39176 16.232 1.33095 16.4647 1.33115H26.7801C27.0151 1.3281 27.2468 1.38715 27.4517 1.50235C27.6567 1.61756 27.8275 1.78482 27.947 1.98723C28.0666 2.18964 28.1306 2.42002 28.1325 2.65509C28.1344 2.89015 28.0743 3.12156 27.9581 3.32592L13.1702 29.1558C13.0547 29.3622 12.8867 29.5344 12.6833 29.6551C12.4799 29.7757 12.2483 29.8405 12.0118 29.8429Z" fill="#ACACAC"/>
<path d="M43.3115 3.32199L34.9044 18.0353L28.5432 29.1558C28.4296 29.3629 28.2627 29.5359 28.0597 29.6567C27.8567 29.7776 27.625 29.8419 27.3887 29.8429H16.7081C16.474 29.8416 16.2443 29.7788 16.0422 29.6607C15.84 29.5427 15.6724 29.3735 15.5563 29.1703C15.4401 28.967 15.3795 28.7367 15.3804 28.5026C15.3813 28.2685 15.4438 28.0387 15.5615 27.8364L21.2866 18.0353L30.6754 1.99084C30.7925 1.78964 30.9604 1.62277 31.1623 1.50699C31.3643 1.3912 31.5931 1.33056 31.8259 1.33115H42.1571C42.39 1.33146 42.6188 1.39288 42.8206 1.50929C43.0223 1.62571 43.19 1.79303 43.3069 1.99454C43.4237 2.19605 43.4857 2.4247 43.4865 2.65764C43.4873 2.89059 43.427 3.11966 43.3115 3.32199Z" fill="white"/>
<path d="M42.8874 29.8429H32.199C31.964 29.8435 31.7331 29.782 31.5297 29.6645C31.3263 29.547 31.1576 29.3777 31.0407 29.1739C30.9239 28.9701 30.863 28.739 30.8644 28.5041C30.8657 28.2692 30.9292 28.0388 31.0484 27.8364L46.1741 1.99083C46.2908 1.79021 46.4581 1.62372 46.6593 1.50796C46.8605 1.39221 47.0886 1.33124 47.3207 1.33115H57.6558C57.8893 1.33106 58.1187 1.3924 58.321 1.50901C58.5233 1.62563 58.6914 1.79341 58.8084 1.99552C58.9254 2.19763 58.9871 2.42695 58.9874 2.66047C58.9877 2.89399 58.9266 3.12348 58.8102 3.32591L44.0458 29.1558C43.9267 29.3621 43.7548 29.5331 43.5478 29.6511C43.3408 29.7691 43.1061 29.8299 42.8678 29.8272" fill="white"/>
<path d="M43.3115 3.32199L36.7736 14.7644C36.2057 15.7576 35.3855 16.5832 34.396 17.1576C33.4065 17.7319 32.2829 18.0347 31.1387 18.0353H21.2866L30.6754 1.99084C30.7925 1.78964 30.9604 1.62277 31.1623 1.50699C31.3643 1.3912 31.5931 1.33056 31.8259 1.33115H42.1571C42.39 1.33146 42.6188 1.39288 42.8206 1.50929C43.0223 1.62571 43.19 1.79303 43.3069 1.99454C43.4237 2.19605 43.4857 2.4247 43.4865 2.65764C43.4873 2.89059 43.427 3.11966 43.3115 3.32199Z" fill="#ACACAC"/>
</g>
<defs>
<clipPath id="clip0_139_53">
<rect width="228.499" height="30" fill="white"/>
</clipPath>
</defs>
</svg>
