<svg width="16" height="13" viewBox="0 0 16 13" fill="none" xmlns="http://www.w3.org/2000/svg">
<g clip-path="url(#clip0_26_27)">
<path d="M0 11.6098C1.68375 11.7201 3.35026 11.2213 4.68293 10.2082C4.00059 10.1727 3.34486 9.93751 2.80073 9.53303C2.2566 9.12855 1.84916 8.57345 1.63122 7.93968C2.10617 8.0203 2.59411 7.98488 3.05171 7.83656C2.31257 7.66408 1.65174 7.25888 1.17073 6.68321C0.674485 6.10401 0.40844 5.36904 0.421463 4.6133C0.872457 4.84243 1.37283 4.96288 1.88098 4.96465C1.71707 4.81189 1.56098 4.67058 1.40488 4.52546C0.95022 4.08395 0.642757 3.51812 0.522927 2.90237C0.456017 2.5111 0.445508 2.11259 0.491707 1.71847C0.53059 1.36449 0.647777 1.02305 0.835122 0.717879C0.901463 0.603308 0.956097 0.691145 1.00293 0.740793C1.19415 0.939383 1.37756 1.14561 1.56098 1.34038C2.27446 2.03831 3.09963 2.61752 4.0039 3.05513C4.69641 3.41154 5.43764 3.66877 6.20488 3.81894C6.68488 3.90677 7.17268 3.96406 7.66049 4.0328C7.70732 4.0328 7.75415 4.0328 7.81268 4.0328C7.87122 4.0328 7.81268 3.94115 7.81268 3.90295C7.70523 3.34625 7.74417 2.77196 7.92585 2.23404C8.16718 1.54435 8.6316 0.950418 9.24878 0.542203C9.60621 0.301083 10.0119 0.137059 10.439 0.0610045C10.9287 -0.031689 11.4328 -0.0212739 11.918 0.0915568C12.4973 0.230589 13.0264 0.522527 13.4478 0.935564C13.4779 0.960082 13.5128 0.978183 13.5505 0.988706C13.5881 0.999228 13.6276 1.00194 13.6663 0.996668C14.0566 0.882097 14.4702 0.767526 14.8605 0.614765C15.1024 0.530746 15.3249 0.400899 15.559 0.293966C15.559 0.293966 15.5902 0.293966 15.6488 0.293966C15.3984 0.991616 14.9232 1.59075 14.2946 2.00107C14.8799 1.96149 15.4553 1.83264 16 1.61917C16.0059 1.65714 16.0059 1.69577 16 1.73374C15.6481 2.22321 15.2232 2.65832 14.7395 3.02458C14.6531 3.07819 14.5831 3.15374 14.5371 3.24318C14.491 3.33263 14.4706 3.43262 14.478 3.53251C14.4983 4.09193 14.4537 4.65179 14.3454 5.20143C14.2193 5.92081 14.0111 6.62408 13.7249 7.29808C13.3792 8.11962 12.9196 8.89067 12.359 9.5895C11.9973 10.0389 11.595 10.4556 11.1571 10.8345C10.6811 11.2619 10.1481 11.6241 9.57268 11.9115C9.12444 12.1245 8.66456 12.3132 8.19512 12.4767C7.74048 12.6213 7.27798 12.7412 6.80976 12.8357C6.01645 12.992 5.20513 13.0421 4.39805 12.9846C3.99381 12.9672 3.59108 12.9251 3.19219 12.8586C2.63375 12.7726 2.08669 12.6266 1.56098 12.4232C1.05269 12.24 0.562796 12.0111 0.097561 11.7396C0.0622688 11.7134 0.0296014 11.684 0 11.6518L0 11.6098Z" fill="white"/>
</g>
<defs>
<clipPath id="clip0_26_27">
<rect width="16" height="13" fill="white"/>
</clipPath>
</defs>
</svg>
