<svg width="14" height="14" viewBox="0 0 14 14" fill="none" xmlns="http://www.w3.org/2000/svg">
<g clip-path="url(#clip0_25_22)">
<path d="M9.1215 9.92756C9.24026 9.87066 9.35267 9.80135 9.45687 9.72081C9.78054 9.41264 10.0886 9.09278 10.4045 8.77682C10.4455 8.71414 10.4999 8.66126 10.5636 8.62192C10.6274 8.58258 10.699 8.55775 10.7735 8.54918C10.8479 8.54062 10.9233 8.54854 10.9943 8.57237C11.0653 8.59621 11.1302 8.63539 11.1844 8.68711L13.6881 10.2942C13.76 10.3243 13.8242 10.3704 13.8756 10.429C13.927 10.4877 13.9643 10.5573 13.9846 10.6327C14.0049 10.708 14.0078 10.7869 13.9929 10.8635C13.978 10.9401 13.9457 11.0122 13.8987 11.0744L12.7287 13.5904C12.5377 13.9805 12.4089 14.0507 11.9761 13.9805C8.68081 13.5358 5.99781 11.9482 3.74377 9.56869C2.0429 7.82371 0.84274 5.65309 0.269125 3.28447C0.163833 2.84368 0.105343 2.39119 0.0312479 1.9426C0.0011285 1.81657 0.019231 1.68385 0.0820176 1.57051C0.144804 1.45718 0.247728 1.37143 0.370522 1.33017C1.24406 0.940085 2.11368 0.50711 2.98722 0.101426C3.04785 0.058333 3.11748 0.0295715 3.19085 0.0173097C3.26421 0.00504799 3.33938 0.00960864 3.41073 0.0306426C3.48207 0.0516765 3.54773 0.0886322 3.60272 0.138734C3.6577 0.188835 3.7006 0.250772 3.72818 0.31987C4.26634 1.15204 4.8032 1.98681 5.33876 2.82418C5.39132 2.87781 5.43131 2.94246 5.45584 3.01344C5.48038 3.08441 5.48883 3.15995 5.48062 3.2346C5.47241 3.30924 5.44773 3.38114 5.40836 3.44509C5.36899 3.50903 5.31591 3.56342 5.25296 3.60434C4.95658 3.9008 4.67191 4.20898 4.35993 4.48983C4.25688 4.57892 4.18179 4.69593 4.14374 4.82675C4.10568 4.95757 4.10628 5.09661 4.14545 5.22709C4.45885 6.60934 5.24508 7.83867 6.3683 8.7027C7.06814 9.29128 7.9051 9.69377 8.80172 9.87294C8.86801 9.89245 8.96551 9.90026 9.1215 9.92756Z" fill="white" fill-opacity="0.35"/>
<path d="M7.24571 5.81943e-06C8.84774 0.0652183 10.3792 0.677059 11.5853 1.73378C12.7914 2.79049 13.5995 4.2284 13.8752 5.80832C13.9298 6.16763 13.9649 6.52962 13.9805 6.89273C13.9939 6.96271 13.9923 7.03474 13.9758 7.10405C13.9593 7.17337 13.9283 7.23839 13.8848 7.29481C13.8413 7.35123 13.7863 7.39778 13.7235 7.43135C13.6607 7.46492 13.5914 7.48476 13.5203 7.48956C13.224 7.48956 13.0173 7.27502 13.0134 6.90444C13.0087 5.86134 12.7202 4.83918 12.1788 3.94762C11.6697 3.06198 10.9405 2.32294 10.0618 1.80215C9.18318 1.28137 8.18492 0.996515 7.16381 0.975208C7.09361 0.975208 7.01952 0.975208 6.94543 0.975208C6.82235 0.961768 6.70856 0.903408 6.62581 0.811285C6.54307 0.719163 6.49718 0.599735 6.49695 0.475893C6.50302 0.344124 6.56098 0.22012 6.65816 0.130953C6.75534 0.0417863 6.88385 -0.00528692 7.01562 5.81943e-06H7.24571Z" fill="white" fill-opacity="0.35"/>
<path d="M11.3521 7.41155C11.2771 7.44465 11.1961 7.46176 11.1142 7.46176C11.0323 7.46176 10.9513 7.44465 10.8763 7.41155C10.654 7.33353 10.6228 7.10727 10.615 6.88883C10.5932 6.08636 10.3038 5.31423 9.79298 4.6951C9.28213 4.07597 8.57908 3.64539 7.79554 3.47174C7.55375 3.42479 7.30857 3.39738 7.06239 3.38981C6.73481 3.36251 6.52032 3.17136 6.52422 2.8905C6.52808 2.82208 6.54576 2.75516 6.57621 2.69377C6.60665 2.63238 6.64924 2.57778 6.70136 2.5333C6.75348 2.48882 6.81406 2.45537 6.87947 2.43497C6.94487 2.41457 7.01372 2.40765 7.08188 2.41461C8.17446 2.43763 9.22341 2.84786 10.0418 3.57224C10.8603 4.29661 11.3951 5.28808 11.551 6.37004C11.551 6.53387 11.5861 6.6938 11.6017 6.85764C11.5978 7.22041 11.4964 7.28282 11.3521 7.41155Z" fill="white" fill-opacity="0.35"/>
</g>
<defs>
<clipPath id="clip0_25_22">
<rect width="14" height="14" fill="white"/>
</clipPath>
</defs>
</svg>
