<svg width="26" height="26" viewBox="0 0 26 26" fill="none" xmlns="http://www.w3.org/2000/svg">
<g clip-path="url(#clip0_25_2)">
<path d="M26.009 24.7534L17.9261 16.5438C19.3585 14.7824 20.1442 12.5904 20.1542 10.3278C20.1642 8.06524 19.3978 5.86658 17.981 4.09284C16.5641 2.3191 14.581 1.07575 12.3573 0.56701C10.1335 0.0582714 7.80142 0.314365 5.74389 1.29324C3.68636 2.27212 2.02575 3.91561 1.03474 5.95377C0.0437363 7.99192 -0.218751 10.3036 0.290402 12.5092C0.799554 14.7148 2.05007 16.6831 3.83659 18.0911C5.62311 19.499 7.83942 20.2627 10.1216 20.2569C12.5322 20.254 14.8605 19.3875 16.6777 17.8171L24.7606 26L26.009 24.7534ZM10.0856 18.476C8.41399 18.5008 6.77272 18.0318 5.37073 17.1288C3.96874 16.2259 2.86944 14.9297 2.21277 13.4054C1.5561 11.8811 1.37176 10.1975 1.6832 8.56902C1.99464 6.94051 2.78777 5.44071 3.96165 4.2605C5.13554 3.08029 6.63709 2.27309 8.27516 1.94159C9.91322 1.6101 11.6137 1.76928 13.1602 2.39897C14.7067 3.02866 16.0293 4.10035 16.9595 5.47758C17.8898 6.85482 18.3857 8.47531 18.3841 10.1328C18.3961 12.3292 17.5293 14.4407 15.9738 16.0046C14.4183 17.5685 12.3009 18.4572 10.0856 18.476Z" fill="#57A6EB"/>
</g>
<defs>
<clipPath id="clip0_25_2">
<rect width="26" height="26" fill="white"/>
</clipPath>
</defs>
</svg>
