<svg width="16" height="15" viewBox="0 0 16 15" fill="none" xmlns="http://www.w3.org/2000/svg">
<g clip-path="url(#clip0_26_29)">
<path d="M16 15H12.5474V14.6164C12.5474 12.9842 12.5474 11.3235 12.5474 9.679C12.5454 9.30458 12.4959 8.93181 12.4 8.5691C12.3346 8.29318 12.1964 8.03847 11.9987 7.83C11.8011 7.62153 11.5509 7.46646 11.2727 7.38003C10.9945 7.2936 10.6979 7.27877 10.4121 7.33701C10.1262 7.39524 9.86084 7.52454 9.64211 7.71219C9.40138 7.89521 9.20847 8.13057 9.079 8.39924C8.94953 8.66791 8.88713 8.96234 8.89685 9.25871C8.89685 11.0337 8.89685 12.8047 8.89685 14.5634V14.9714H5.47369V4.93744H8.89264V6.27993C9.13614 5.99382 9.3962 5.72135 9.67159 5.46382C10.1585 5.08374 10.7344 4.82548 11.3486 4.71178C11.9627 4.59808 12.5963 4.63243 13.1936 4.81179C13.7908 4.99115 14.3334 5.31003 14.7736 5.74037C15.2138 6.17071 15.5381 6.69932 15.7179 7.27966C15.8484 7.70811 15.9116 8.15289 16.0042 8.59359L16 15Z" fill="white"/>
<path d="M0.0926514 4.92926H3.49476V14.9796H0.0926514V4.92926Z" fill="white"/>
<path d="M1.82737 3.54189C2.8366 3.54189 3.65474 2.74901 3.65474 1.77095C3.65474 0.79288 2.8366 0 1.82737 0C0.818141 0 0 0.79288 0 1.77095C0 2.74901 0.818141 3.54189 1.82737 3.54189Z" fill="white"/>
</g>
<defs>
<clipPath id="clip0_26_29">
<rect width="16" height="15" fill="white"/>
</clipPath>
</defs>
</svg>
