<svg width="25" height="26" viewBox="0 0 25 26" fill="none" xmlns="http://www.w3.org/2000/svg">
<g clip-path="url(#clip0_25_4)">
<path d="M16.325 14.0316C17.7388 13.188 18.838 11.9003 19.4538 10.3667C20.0695 8.83295 20.1676 7.13814 19.7331 5.54284C19.2985 3.94754 18.3553 2.54005 17.0485 1.53686C15.7416 0.533665 14.1436 -0.00971985 12.5 -0.00971985C10.8564 -0.00971985 9.25837 0.533665 7.95155 1.53686C6.64472 2.54005 5.7015 3.94754 5.26693 5.54284C4.83235 7.13814 4.93048 8.83295 5.54623 10.3667C6.16197 11.9003 7.26125 13.188 8.675 14.0316C6.15686 14.8462 3.96036 16.4437 2.40152 18.5944C0.842676 20.745 0.0018469 23.3379 0 26H1.66667C1.66667 23.1083 2.80804 20.335 4.83968 18.2903C6.87133 16.2455 9.62682 15.0968 12.5 15.0968C15.3732 15.0968 18.1287 16.2455 20.1603 18.2903C22.192 20.335 23.3333 23.1083 23.3333 26H25C24.9982 23.3379 24.1573 20.745 22.5985 18.5944C21.0396 16.4437 18.8431 14.8462 16.325 14.0316ZM6.66667 7.54839C6.66667 6.38723 7.00879 5.25215 7.64977 4.28667C8.29074 3.3212 9.20177 2.56868 10.2677 2.12432C11.3336 1.67996 12.5065 1.56372 13.638 1.79025C14.7696 2.01678 15.809 2.57591 16.6248 3.39698C17.4406 4.21804 17.9962 5.26414 18.2212 6.403C18.4463 7.54186 18.3308 8.72233 17.8893 9.7951C17.4478 10.8679 16.7001 11.7848 15.7408 12.4299C14.7815 13.0751 13.6537 13.4194 12.5 13.4194C10.9529 13.4194 9.46917 12.8008 8.37521 11.6998C7.28124 10.5988 6.66667 9.10547 6.66667 7.54839Z" fill="#57A6EB"/>
</g>
<defs>
<clipPath id="clip0_25_4">
<rect width="25" height="26" fill="white"/>
</clipPath>
</defs>
</svg>
