<svg width="8" height="15" viewBox="0 0 8 15" fill="none" xmlns="http://www.w3.org/2000/svg">
<g clip-path="url(#clip0_26_33)">
<path d="M4.98221 15H2.09253C2.09253 14.8967 2.09253 14.79 2.09253 14.6867V7.27667H0V4.73H2.08541C2.08541 4.62 2.08541 3.55667 2.08541 2.83333C2.0703 2.27998 2.23147 1.73495 2.54838 1.26774C2.86528 0.800521 3.32355 0.432292 3.86477 0.21C4.11475 0.0954515 4.38484 0.0243011 4.66192 0L8 0V2.56667H5.92883C5.8065 2.55461 5.68284 2.56831 5.56688 2.60677C5.45093 2.64522 5.34562 2.70746 5.25864 2.78893C5.17166 2.8704 5.10522 2.96904 5.06416 3.07765C5.02311 3.18626 5.00848 3.30208 5.02135 3.41667C5.02135 3.91333 5.02135 4.59667 5.02135 4.75H8C8 4.82667 7.82206 6.41667 7.76157 7.08333C7.76157 7.23667 7.70107 7.28667 7.53025 7.28667C6.91815 7.28667 5.24199 7.28667 4.98932 7.28667C4.98221 9.66667 4.98221 12.6067 4.98221 15Z" fill="white"/>
</g>
<defs>
<clipPath id="clip0_26_33">
<rect width="8" height="15" fill="white"/>
</clipPath>
</defs>
</svg>
