<svg width="264" height="26" viewBox="0 0 264 26" fill="none" xmlns="http://www.w3.org/2000/svg">
<path d="M38.792 19V9.512H35.16V7.48H44.6V9.512H40.968V19H38.792ZM45.8856 19V7.48H53.4056V9.512H48.0616V11.976H52.4456V14.008H48.0616V16.968H53.4056V19H45.8856ZM59.8609 19.24C58.7089 19.24 57.7142 18.9893 56.8769 18.488C56.0449 17.9867 55.4022 17.2853 54.9489 16.384C54.5009 15.4827 54.2769 14.4347 54.2769 13.24C54.2769 12.0453 54.5009 10.9973 54.9489 10.096C55.4022 9.19467 56.0449 8.49333 56.8769 7.992C57.7142 7.49067 58.7089 7.24 59.8609 7.24C61.1835 7.24 62.2929 7.568 63.1889 8.224C64.0902 8.88 64.7249 9.768 65.0929 10.888L62.9009 11.496C62.6875 10.7973 62.3275 10.256 61.8209 9.872C61.3142 9.48267 60.6609 9.288 59.8609 9.288C59.1302 9.288 58.5195 9.45067 58.0289 9.776C57.5435 10.1013 57.1782 10.56 56.9329 11.152C56.6875 11.744 56.5649 12.44 56.5649 13.24C56.5649 14.04 56.6875 14.736 56.9329 15.328C57.1782 15.92 57.5435 16.3787 58.0289 16.704C58.5195 17.0293 59.1302 17.192 59.8609 17.192C60.6609 17.192 61.3142 16.9973 61.8209 16.608C62.3275 16.2187 62.6875 15.6773 62.9009 14.984L65.0929 15.592C64.7249 16.712 64.0902 17.6 63.1889 18.256C62.2929 18.912 61.1835 19.24 59.8609 19.24ZM66.8544 19V7.48H69.0304V12.216H74.1824V7.48H76.3584V19H74.1824V14.248H69.0304V19H66.8544ZM78.6044 19V7.48H80.8124L85.8204 15.16V7.48H88.0284V19H85.8204L80.8124 11.32V19H78.6044ZM95.2046 19.24C94.0526 19.24 93.058 18.9893 92.2206 18.488C91.3886 17.9867 90.746 17.2853 90.2926 16.384C89.8446 15.4827 89.6206 14.4347 89.6206 13.24C89.6206 12.0453 89.8446 10.9973 90.2926 10.096C90.746 9.19467 91.3886 8.49333 92.2206 7.992C93.058 7.49067 94.0526 7.24 95.2046 7.24C96.3566 7.24 97.3486 7.49067 98.1806 7.992C99.018 8.49333 99.6606 9.19467 100.109 10.096C100.562 10.9973 100.789 12.0453 100.789 13.24C100.789 14.4347 100.562 15.4827 100.109 16.384C99.6606 17.2853 99.018 17.9867 98.1806 18.488C97.3486 18.9893 96.3566 19.24 95.2046 19.24ZM95.2046 17.192C95.9353 17.2027 96.5433 17.0453 97.0286 16.72C97.514 16.3947 97.8766 15.9333 98.1166 15.336C98.362 14.7387 98.4846 14.04 98.4846 13.24C98.4846 12.44 98.362 11.7467 98.1166 11.16C97.8766 10.5733 97.514 10.1173 97.0286 9.792C96.5433 9.46667 95.9353 9.29867 95.2046 9.288C94.474 9.27733 93.866 9.43467 93.3806 9.76C92.8953 10.0853 92.53 10.5467 92.2846 11.144C92.0446 11.7413 91.9246 12.44 91.9246 13.24C91.9246 14.04 92.0446 14.7333 92.2846 15.32C92.53 15.9067 92.8953 16.3627 93.3806 16.688C93.866 17.0133 94.474 17.1813 95.2046 17.192ZM102.546 19V7.48H104.722V16.968H109.682V19H102.546ZM115.673 19.24C114.521 19.24 113.527 18.9893 112.689 18.488C111.857 17.9867 111.215 17.2853 110.761 16.384C110.313 15.4827 110.089 14.4347 110.089 13.24C110.089 12.0453 110.313 10.9973 110.761 10.096C111.215 9.19467 111.857 8.49333 112.689 7.992C113.527 7.49067 114.521 7.24 115.673 7.24C116.825 7.24 117.817 7.49067 118.649 7.992C119.487 8.49333 120.129 9.19467 120.577 10.096C121.031 10.9973 121.257 12.0453 121.257 13.24C121.257 14.4347 121.031 15.4827 120.577 16.384C120.129 17.2853 119.487 17.9867 118.649 18.488C117.817 18.9893 116.825 19.24 115.673 19.24ZM115.673 17.192C116.404 17.2027 117.012 17.0453 117.497 16.72C117.983 16.3947 118.345 15.9333 118.585 15.336C118.831 14.7387 118.953 14.04 118.953 13.24C118.953 12.44 118.831 11.7467 118.585 11.16C118.345 10.5733 117.983 10.1173 117.497 9.792C117.012 9.46667 116.404 9.29867 115.673 9.288C114.943 9.27733 114.335 9.43467 113.849 9.76C113.364 10.0853 112.999 10.5467 112.753 11.144C112.513 11.7413 112.393 12.44 112.393 13.24C112.393 14.04 112.513 14.7333 112.753 15.32C112.999 15.9067 113.364 16.3627 113.849 16.688C114.335 17.0133 114.943 17.1813 115.673 17.192ZM127.654 19.24C126.929 19.24 126.238 19.112 125.582 18.856C124.926 18.5947 124.345 18.2107 123.838 17.704C123.337 17.1973 122.94 16.5707 122.646 15.824C122.358 15.0773 122.214 14.216 122.214 13.24C122.214 11.9653 122.457 10.8827 122.942 9.992C123.433 9.096 124.089 8.41333 124.91 7.944C125.737 7.47467 126.652 7.24 127.654 7.24C129.137 7.24 130.302 7.584 131.15 8.272C131.998 8.96 132.566 9.93333 132.854 11.192L130.63 11.512C130.422 10.84 130.081 10.304 129.606 9.904C129.137 9.49867 128.534 9.29333 127.798 9.288C127.068 9.27733 126.46 9.43467 125.974 9.76C125.489 10.0853 125.124 10.5467 124.878 11.144C124.638 11.7413 124.518 12.44 124.518 13.24C124.518 14.04 124.638 14.7333 124.878 15.32C125.124 15.9067 125.489 16.3627 125.974 16.688C126.46 17.0133 127.068 17.1813 127.798 17.192C128.294 17.2027 128.742 17.1173 129.142 16.936C129.548 16.7547 129.889 16.4693 130.166 16.08C130.444 15.6907 130.641 15.192 130.758 14.584H128.934V12.904H133.078C133.089 12.9733 133.097 13.096 133.102 13.272C133.108 13.448 133.11 13.5493 133.11 13.576C133.11 14.68 132.886 15.6587 132.438 16.512C131.99 17.3653 131.358 18.0347 130.542 18.52C129.726 19 128.764 19.24 127.654 19.24ZM137.045 19V14.312L133.109 7.48H135.653L138.149 11.816L140.645 7.48H143.189L139.253 14.312V19H137.045ZM146.07 19L149.59 7.48H152.838L156.358 19H154.118L150.982 8.84H151.398L148.31 19H146.07ZM148.182 16.6V14.568H154.262V16.6H148.182ZM157.792 19V7.48H160L165.008 15.16V7.48H167.216V19H165.008L160 11.32V19H157.792ZM169.448 19V7.48H173.176C173.267 7.48 173.453 7.48267 173.736 7.488C174.019 7.49333 174.291 7.512 174.552 7.544C175.48 7.656 176.267 7.97867 176.912 8.512C177.557 9.04533 178.048 9.72267 178.384 10.544C178.72 11.3653 178.888 12.264 178.888 13.24C178.888 14.216 178.72 15.1147 178.384 15.936C178.048 16.7573 177.557 17.4347 176.912 17.968C176.267 18.5013 175.48 18.824 174.552 18.936C174.291 18.968 174.019 18.9867 173.736 18.992C173.453 18.9973 173.267 19 173.176 19H169.448ZM171.656 16.952H173.176C173.32 16.952 173.515 16.9493 173.76 16.944C174.005 16.9333 174.227 16.9093 174.424 16.872C174.925 16.7707 175.333 16.536 175.648 16.168C175.968 15.8 176.203 15.3573 176.352 14.84C176.507 14.3227 176.584 13.7893 176.584 13.24C176.584 12.664 176.504 12.1173 176.344 11.6C176.189 11.0827 175.952 10.6453 175.632 10.288C175.312 9.93067 174.909 9.704 174.424 9.608C174.227 9.56533 174.005 9.54133 173.76 9.536C173.515 9.53067 173.32 9.528 173.176 9.528H171.656V16.952ZM184.171 19V7.48H186.347V19H184.171ZM188.745 19V7.48H190.953L195.961 15.16V7.48H198.169V19H195.961L190.953 11.32V19H188.745ZM203.073 19V9.512H199.441V7.48H208.881V9.512H205.249V19H203.073ZM210.167 19V7.48H217.687V9.512H212.343V11.976H216.727V14.008H212.343V16.968H217.687V19H210.167ZM219.604 19V7.48H224.468C224.58 7.48 224.73 7.48533 224.916 7.496C225.108 7.50133 225.279 7.51733 225.428 7.544C226.116 7.65067 226.679 7.87733 227.116 8.224C227.559 8.57067 227.884 9.008 228.092 9.536C228.3 10.0587 228.404 10.6427 228.404 11.288C228.404 12.2533 228.164 13.08 227.684 13.768C227.204 14.4507 226.452 14.872 225.428 15.032L224.468 15.096H221.78V19H219.604ZM226.1 19L223.828 14.312L226.068 13.88L228.564 19H226.1ZM221.78 13.064H224.372C224.484 13.064 224.607 13.0587 224.74 13.048C224.874 13.0373 224.996 13.016 225.108 12.984C225.402 12.904 225.628 12.7707 225.788 12.584C225.948 12.392 226.058 12.1813 226.116 11.952C226.18 11.7173 226.212 11.496 226.212 11.288C226.212 11.08 226.18 10.8613 226.116 10.632C226.058 10.3973 225.948 10.1867 225.788 10C225.628 9.808 225.402 9.672 225.108 9.592C224.996 9.56 224.874 9.53867 224.74 9.528C224.607 9.51733 224.484 9.512 224.372 9.512H221.78V13.064ZM230.323 19V7.48H232.531L237.539 15.16V7.48H239.747V19H237.539L232.531 11.32V19H230.323ZM241.979 19V7.48H249.499V9.512H244.155V11.976H248.539V14.008H244.155V16.968H249.499V19H241.979ZM254.089 19V9.512H250.457V7.48H259.897V9.512H256.265V19H254.089Z" fill="#57A6EB"/>
<rect y="13" width="26" height="2" fill="#57A6EB"/>
</svg>
